<svg version="1.0" xmlns="http://www.w3.org/2000/svg" width="3922.667" height="994.667" viewBox="0 0 2942 746"><path d="M187 186.5.5 373l186.2 186.2L373 745.5l81.3-81.3 81.2-81.2 81.3 81.2 81.2 81.3L884.5 559 1071 372.5 884.8 186.3 698.5 0l-81.2 81.2-81.3 81.3-81.3-81.3L373.5 0 187 186.5zm442 220c-18.7 18.7-34 34.5-34 35s9.1 10.1 20.2 21.2l20.3 20.3 55.2-55.2 55.3-55.3-84.2-84.2-84.3-84.3 60.5-60.5L698.5 83l144.8 144.8L988 372.5l-145 145-145 145-144.7-144.7L408.5 373l34.3-34.3 34.2-34.2-20.8-20.8-20.7-20.7-55 55-55 55 84.3 84.3 84.2 84.2-60.5 60.5-60.5 60.5-144.8-144.8L83.5 373l145-145 145-145 144.7 144.7L663 372.5l-34 34z"/><path d="M959.2 168.9c.2.5 48.5 46.4 107.3 102 58.9 55.7 107.1 101.5 107.2 101.9.1.5-164 156.2-202.9 192.4l-8.3 7.8H2942V168h-991.6c-565.2 0-991.4.4-991.2.9zm1953.6 201.8-.3 172.8-422.7.3-422.8.2V198h846l-.2 172.7zM1385.4 261.9c22.4 5.9 41.3 21 47.6 37.8 2.4 6.6 4.7 20.1 3.7 22.6-.6 1.6-2.8 1.7-23.9 1.5l-23.3-.3-.7-4.8c-.8-5.8-4.7-12.8-9.1-16.1-5.7-4.4-11.3-5.9-22.2-6-9.5-.1-10.4.1-16.8 3.2-10.9 5.4-15.7 14.5-12.8 24.2 2.7 9.2 12.5 14.5 52.1 28.5 28.2 10 45.1 22 52.2 37.1 7.4 15.8 7.5 35.4.1 50.3-4.3 8.8-14.3 18.1-25.4 23.5-15.3 7.4-23.8 9-46.9 9-18 0-20.3-.2-29.5-2.7-11.8-3.2-25.6-9.6-34.2-16-14-10.4-22-25.8-22.6-43.5l-.2-6.7 23.6-.3 23.6-.2.6 6c1.2 11.4 6.5 18.9 16 23 12.3 5.3 33.9 4.8 43-1 11-6.9 11.8-25.5 1.5-33.3-5.2-4-18.6-10-35.3-15.7-16.7-5.7-36.2-14.7-45.2-20.8-15.1-10.3-22.3-24.1-22.3-43.2 0-16.1 4.4-26.4 16.2-37.5 8-7.6 16.2-12.4 28.3-16.4 12.5-4.2 19.5-5 38-4.6 12.3.2 17.8.8 23.9 2.4zm528.3 0c21.4 5.3 36 16.7 45.5 35.5 3.3 6.5 7.8 22.9 7.8 28.2v3.4h-45.8l-.6-4.5c-1-6.4-7.1-17.9-11.4-21.5-5.5-4.5-12.3-6.4-22.7-6.4-11.4 0-17.3 2.4-24.4 9.8-5.8 6.2-9.6 13.3-11.6 21.8-2.1 9.1-2.1 66.6 0 75.6 3.3 13.8 10.8 24.1 21.3 29 5.2 2.5 6.7 2.7 17.7 2.7 9.4-.1 13.5-.5 19-2.3 12-3.7 11.5-2.7 11.5-21.8V395h-33v-32h81V442.3l-4.7 4.4c-10.6 9.8-27 18.8-40.9 22.3-19.8 5.1-46.8 5.3-62.9.5-15.2-4.5-23.6-9.5-35.1-21-8.7-8.6-10.7-11.3-14.7-19.5-2.6-5.2-5.7-13.6-6.9-18.5-2.2-8.6-2.3-10.8-2.2-45 0-35.7 0-36.1 2.6-45.7 4.7-17.3 14.9-33.2 27.6-43.4 8.1-6.5 22.4-13.2 32.9-15.5 11.9-2.6 37.7-2.1 50 1zM1695 280.5V299h-96v45h81v37h-81v52h96v37h-145V262h145v18.5z"/><path d="M2147.5 263.2c.2.7 10.8 46.5 23.5 101.8 12.6 55.3 23.2 101.5 23.5 102.7l.5 2.3h45.7l16.8-62.3c9.2-34.2 17.1-63.1 17.5-64.2.9-2.5-.8-8.5 19.4 66l16.3 60 22.9.3 22.9.2 23.4-102.7c12.9-56.6 23.6-103.4 23.9-104.1.3-.9-4.7-1.2-23.2-1.2-13 0-23.6.3-23.6.7 0 1.1-26 131.6-26.7 133.8-.6 2-.6 2-1.3 0-.4-1.1-8.8-31.8-18.6-68.3l-17.8-66.2-17 .2-16.9.3-17.9 66.5c-9.8 36.6-18.1 67.2-18.4 68-.4.8-6.8-29.1-14.3-66.5l-13.7-68-23.7-.3c-18.8-.2-23.6 0-23.2 1zM2513 366v104h48V262h-48v104zM2667 280.5V299h54v171h48V299h55v-37h-157v18.5z"/></svg>
